<?xml version="1.0" encoding="UTF-8"?>
<svg width="602px" height="326px" viewBox="0 0 602 326" version="1.1" xmlns="http://www.w3.org/2000/svg" xmlns:xlink="http://www.w3.org/1999/xlink">
    <!-- Generator: Sketch 48.2 (47327) - http://www.bohemiancoding.com/sketch -->
    <title>TheBeatles</title>
    <desc>Created with Sketch.</desc>
    <defs></defs>
    <g id="Page-1" stroke="none" stroke-width="1" fill="none" fill-rule="evenodd">
        <g id="TheBeatles" fill="#1A1919">
            <g id="Bodies" transform="translate(133.000000, 104.000000)">
                <path d="M49.80503,25.6868305 C49.80503,25.6868305 50.0858073,23.654051 50.0858073,22.6508679 C50.0858073,21.6487206 50.7228563,21.3747485 50.8138633,20.4637526 C50.9048703,19.5522387 49.5402824,20.0986291 49.4487583,19.3694181 C49.3582684,18.640207 51.1049823,17 55.3642134,17 C59.6234446,17 60.354086,19.5434344 60.354086,19.5434344 L60.354086,25.7722849 C60.354086,25.7722849 63.0992916,25.3636574 63.0992916,26.3875567 C63.0992916,27.411974 61.2062425,28.7585285 61.2062425,28.7585285 C61.2062425,28.7585285 61.2057254,30.379573 62.0578819,31.3180179 C62.0578819,31.3180179 63.0992916,32.2212453 62.6437395,34.2265757 C62.8340268,35.2204366 63.0992916,36.0496034 62.3712355,36.5959938 C62.3712355,36.5959938 60.2775574,38.2372366 60.0955434,38.8752963 C59.9140465,39.513356 59.7315154,40.7894754 60.5505784,41.2447144 C61.3696414,41.7009892 64.8697914,41.8983112 68.8730654,44.2014374 C68.8730654,44.2014374 76.9230484,44.7338443 80.2029201,51.2827605 C81.2360564,50.9979124 83.2221808,51.7675201 86.074423,52.9079483 C86.4482756,53.057623 86.917272,53.5703495 87.3045688,53.7319361 C88.1339735,54.1245085 88.4628397,54.0074618 88.9788908,54.2306791 C89.4644339,54.4404309 89.908093,55.0645071 90.3988069,55.2815096 C90.7959284,55.4570796 91.4257382,55.0039122 91.8213084,55.1810359 C95.8618125,56.9895622 99.7347809,58.7996422 101.31913,59.1093498 C101.758653,60.0747258 101.626796,60.1808965 101.362565,61.1328069 C101.362565,61.1328069 105.975483,60.4315628 107.59396,62.1380617 C107.59396,62.1380617 110.48912,64.0807255 111,65.7872245 C111,65.7872245 110.113716,66.9820327 108.069161,65.7872245 C108.069161,65.7872245 106.184385,64.8492974 105.418065,64.0817614 C105.418065,64.0817614 102.365711,64.4644936 101.177449,63.5659274 C101.177449,63.5659274 100.019695,66.0384087 99.5936167,66.9768536 C99.5936167,66.9768536 98.9865586,68.5642342 96.5040323,67.6910454 C96.5040323,67.6910454 88.6794985,65.5510595 87.1463407,64.8674241 C87.1463407,64.8674241 86.256437,64.5820582 85.1183324,64.3987196 C84.4357799,64.2878878 83.484343,63.5452112 82.7609408,63.5928585 C82.0375385,63.6405058 81.1734891,64.4960858 80.6858777,64.8674241 C80.6858777,64.8674241 78.2493721,66.2036206 75.9230056,67.0876854 C74.0671866,67.7935907 72.2449782,67.9137448 72.0562421,69.0246523 L71.9124924,78.4142806 L71.2299399,83.2784499 C71.2299399,83.2784499 71.3540404,91.1345598 71.2919901,92.5681225 C71.2299399,94.0022031 70.794037,99.1776336 70.794037,100.17512 C70.794037,101.172606 70.8560873,104.976105 70.8560873,104.976105 C70.8560873,104.976105 70.7314697,106.597149 69.0509427,106.535 C69.0509427,106.535 67.8058014,106.784113 67.7437512,109.028716 C67.7535758,110.112692 67.8326899,111.552988 67.9562732,113.203553 C68.0229772,114.088136 68.5886685,115.651693 68.6770901,116.635713 C68.8296302,118.32305 68.5240328,119.50491 68.7143202,121.303596 C69.1610818,125.533849 68.7939513,126.169319 69.1129929,128.91888 C69.1129929,128.91888 69.2862165,130.338977 69.4868456,131.662226 C69.5447591,132.045476 70.6047838,132.381079 70.6694195,132.784527 C70.7433627,133.242356 70.9641581,133.828625 71.0432721,134.280757 C71.1099761,134.665043 71.5179564,135.052436 71.4786579,135.40254 C71.3602454,136.453371 70.8860782,137.416157 71.0432721,137.834107 C71.0432721,137.834107 71.1373816,138.109115 71.3778263,138.569533 C71.5929337,138.981268 71.6777357,140.055922 72.1637958,140.702786 C72.8111866,141.565617 73.8070927,141.864448 75.0894641,142.884722 C75.0894641,142.884722 76.3966556,143.320799 76.3966556,144.942361 C76.3966556,144.942361 77.8481139,146.937851 77.0812765,146.937851 L64.3749409,146.958568 C64.3749409,146.958568 62.7771475,146.68356 63.0124212,145.441622 C63.3619709,143.595289 63.4085085,141.169937 63.0124212,137.273733 C62.9162434,136.326484 63.3692101,132.957508 63.2616563,131.973487 C63.2616563,131.973487 62.0816678,130.529049 61.7677971,128.295322 C61.6431795,127.413846 61.6654142,125.419392 61.518562,124.367008 C60.8463512,119.547378 59.9393837,115.369952 59.6508501,112.770066 C59.6508501,112.770066 59.3204326,108.959834 58.4682761,107.595153 C58.4682761,107.595153 55.7292756,106.784113 53.6123286,107.595153 C53.6123286,107.595153 52.8816872,107.880001 52.8030902,108.592121 C52.5641969,110.754895 52.0693463,114.441865 51.6205163,119.254244 C51.6205163,119.254244 51.0046678,125.534885 50.7487106,128.606583 C50.7487106,128.606583 50.4999926,131.537411 50.2512746,132.597046 C50.0020395,133.657198 50.2455866,133.855038 50.4213956,134.781571 C50.5620428,135.527355 51.1225632,135.527355 51.060513,136.338396 C51.0206974,136.851122 50.8231708,138.653951 50.6866603,140.952416 C50.6204734,142.063324 50.1111445,142.947907 50.0640897,144.007024 C49.9839415,145.80312 50.4379423,146.126811 50.375375,146.750887 C50.362965,146.874667 49.9591214,146.92335 49.3169015,146.937851 C46.4532835,147 40.5393796,147 40.5393796,147 C40.5393796,147 39.3304343,145.576795 40.3527118,144.380951 C40.3527118,144.380951 41.3165587,143.617041 41.9091384,142.261164 C42.228697,141.529363 41.9339585,140.370291 42.4696588,139.643151 C43.0296621,137.897809 41.2865677,135.839652 43.4029976,134.654684 C43.9014678,134.093275 44.4154505,133.820339 44.3994209,133.345937 C44.3828742,132.863249 44.1408783,132.250567 44.1501858,131.911856 C44.1501858,131.911856 43.5901825,125.301827 43.5901825,118.942465 C43.5901825,112.583102 43.5901825,106.597149 43.5901825,106.597149 C43.5901825,106.597149 36.8086095,106.598703 35.616211,103.953241 C35.616211,103.953241 35.3990352,72.202521 36.8427372,67.8345053 C32.3135875,66.1347391 30.2473149,65.9457036 27.5171048,63.3929469 C27.5171048,63.3929469 25.7450537,62.6544136 23.7863348,63.8487038 C23.7863348,63.8487038 14.2828252,66.0834665 11.0463886,66.7655481 C11.0463886,66.7655481 8.95322758,66.7655481 8.58919957,64.0315245 C8.58919957,64.0315245 6.94331724,64.5069618 5.66508253,64.4220253 C5.66508253,64.4220253 4.30256292,65.6157977 2.25749079,66.5552785 C2.25749079,66.5552785 -0.979462826,66.7256694 0.298771891,64.7633251 C0.298771891,64.7633251 1.95447883,61.4715172 7.40662562,60.0208636 C7.40662562,60.0208636 7.11395537,58.8685237 9.49926959,58.0155332 C9.49926959,58.0155332 23.0205316,52.3657011 27.7906429,49.7212752 C27.7906429,49.7212752 34.433637,43.8881045 41.7136801,42.9760728 C41.7136801,42.9760728 48.4440616,40.5149854 49.7222964,40.5149854 L49.3582684,37.9643004 C49.3582684,37.9643004 47.8499307,37.1646541 47.0830933,36.1407548 C47.0830933,36.1407548 45.3617165,35.1572521 48.4290662,31.5728275 C48.4290662,31.5728275 48.6845063,30.4639916 48.5997043,29.183729 C48.5997043,29.183729 46.8100723,29.5706045 46.8100723,28.1204688 C46.8100723,28.1204688 45.9000023,26.3875567 49.80503,25.6868305" id="Fill-2"></path>
                <path d="M90.439557,16.6350494 C90.439557,16.6350494 95.3156733,17.8023569 96.1938486,19.165159 C96.1938486,19.165159 97.168453,20.4291848 97.8517075,22.1809179 C97.8517075,22.1809179 98.1724503,24.5834416 99.63281,24.7002238 C99.63281,24.7002238 100.488296,26.0398752 101.560877,26.6232717 C101.560877,26.6232717 107.728215,29.3560782 112.545545,32.0446411 C113.333995,32.4839891 115.073329,34.0572049 116.226353,34.1426051 C117.524794,34.2388089 118.571592,33.8961792 118.680397,33.9682035 C119.206374,34.3180356 119.49824,35.0176999 119.615295,35.7168498 C119.82878,36.9942516 120.709018,37.1115482 121.192711,37.4654961 C121.545425,37.72324 124.432626,37.5637577 124.815248,37.8153282 C125.212825,38.0777023 125.400011,39.1025047 125.807901,39.3309246 C126.217854,39.5603733 126.520033,39.4533658 126.918125,39.6221084 C127.440492,39.8433258 128.02113,40.8161678 128.496056,40.7297387 C129.78109,40.4972032 129.605764,39.4477068 130.482393,39.3890584 C131.364693,39.3304101 131.475561,40.4972032 132.468729,41.0790564 C132.468729,41.0790564 134.22147,42.0127996 134.10493,39.1560085 C134.10493,39.1560085 132.644571,37.9923021 132.644571,36.241598 C132.644571,36.241598 131.825697,32.6311244 132.118594,30.5871786 C132.118594,30.5871786 132.31403,30.0644883 131.826212,29.1883645 C131.826212,29.1883645 129.489224,26.9154845 131.475561,25.0495415 C133.461898,23.1846275 133.287088,23.8842918 135.682346,23.4763257 C136.259373,23.3775496 137.229337,22.417569 137.844008,22.3100471 C138.507152,22.1948083 139.3219,23.1434707 140.006186,23.0678453 C140.706973,22.9911909 141.528425,22.197895 142.167848,22.3100471 C144.154185,22.6598792 146.13485,23.2319577 146.257578,23.8842918 C146.608229,25.7497203 145.673331,24.9332738 145.615061,26.3320879 C145.556275,27.7314165 146.082252,28.0807342 145.673331,29.7712466 C145.461908,30.6432547 146.140006,31.3953938 146.082252,32.2195572 C146.007481,33.2911754 145.556275,34.0839568 145.556275,34.3180356 C145.556275,35.0753193 146.549959,35.8912514 145.556275,37.3487139 C145.556275,37.3487139 144.611579,37.9804696 144.504837,38.4563442 C144.443473,38.7279786 145.082896,39.2666172 145.078255,39.5629456 C145.067426,40.2379158 145.286583,40.8552667 146.125052,40.8619547 C146.125052,40.8619547 146.662374,39.8849969 147.601397,39.8556728 C148.047962,39.8407535 148.858585,40.9324356 149.470678,40.7297387 C150.155995,40.5028623 150.662377,40.1833832 151.515801,39.5639745 C151.515801,39.5639745 152.353238,38.3570536 153.326812,37.8153282 C154.070914,37.4017031 155.671019,37.283892 156.630669,36.7010099 C158.645883,35.475054 160.79981,34.0150193 161.681595,32.9032733 C161.681595,32.9032733 161.611981,31.8964769 162.634026,30.9622193 C163.516843,30.1545186 165.525868,29.1708729 166.979525,28.2782865 C167.369366,28.039063 168.749798,28.2978359 169.131905,28.0719884 C169.459351,27.8785518 169.976562,27.2581142 170.290601,27.0806258 C171.265206,26.531698 172.132552,26.193184 172.815291,25.9241219 C172.815291,25.9241219 176.246517,22.6763419 177.904376,21.2168216 C177.904376,21.2168216 179.471478,19.9286162 180.252709,19.9286162 C180.252709,19.9286162 180.919462,18.052384 181.309304,17.2734931 C181.309304,17.2734931 182.395807,13.7139509 186.004422,11.5732868 C186.004422,11.5732868 188.255294,10.5057843 188.840573,11.2841609 C188.840573,11.2841609 189.523827,13.229845 188.061405,14.3971525 C188.061405,14.3971525 187.963944,15.7599545 187.183745,17.4139404 C187.183745,17.4139404 186.012673,18.970179 184.452274,19.8463027 C184.452274,19.8463027 183.029558,20.9261523 182.835153,21.4118016 C182.835153,21.4118016 183.106392,23.365717 182.326708,23.9496281 C182.326708,23.9496281 175.284805,30.9380397 174.016787,32.4953072 C174.016787,32.4953072 169.24071,39.1220542 168.29292,40.9036259 C167.677733,42.0591009 166.173026,46.8235061 166.228202,48.0849596 C166.282347,49.3469277 166.029156,49.2023647 166.171479,50.7570599 C166.27255,51.8461697 166.967664,53.1817054 167.103284,54.6010979 C167.461154,58.3643658 167.892249,62.6637 168.124814,64.1741518 C168.571378,67.0695273 168.487841,71.0257173 168.292404,73.7492635 C168.292404,73.7492635 168.905529,75.6419583 165.630548,78.3217755 C165.630548,78.3217755 158.526765,83.993172 154.731995,85.8308197 C154.731995,85.8308197 154.070399,86.6241155 154.062664,87.2774785 C154.02863,90.437286 154.59225,100.065901 153.78369,104.257714 C153.78369,104.257714 152.94883,105.384379 152.723485,107.153089 C152.643042,107.783302 152.519798,108.237054 152.444511,108.934146 C152.398617,109.359604 152.204212,110.012453 152.165537,110.437396 C152.099016,111.172043 152.863746,112.117619 152.835384,112.775612 C152.809601,113.353864 152.667793,114.322076 152.667793,114.891068 C152.667793,116.136573 153.874962,116.936042 154.062664,117.897052 C154.062664,117.897052 153.560407,119.90087 153.950765,123.742336 C154.035334,124.569586 153.072589,125.847502 153.058151,126.637197 C153.046806,127.281814 153.514513,128.397161 153.504716,128.975413 C153.472744,130.845986 153.727482,132.1167 153.727482,132.538042 C153.727482,134.096853 153.018445,135.496696 153.002459,135.822863 C152.972551,136.434555 153.616099,136.211794 154.062664,136.26787 C154.062664,136.26787 155.614812,136.430439 155.7922,137.325083 C155.883472,137.784495 155.08935,138.588595 155.234252,139.106655 C155.471457,139.959114 155.672566,140.684501 156.071174,141.278187 C157.18707,142.93886 156.462047,143.393642 158.024508,144.484295 C158.024508,144.484295 159.084713,146.232427 158.191583,147 L146.972803,147 C146.972803,147 146.613386,144.546545 146.808306,142.892045 C146.808306,142.892045 147.142972,141.221596 147.562207,140.227661 C147.782395,139.705485 147.517344,139.074758 147.310563,138.438373 C147.163083,137.98462 146.685578,137.526237 146.529332,137.046246 C146.383399,136.599696 146.450436,135.997779 146.30605,135.543512 C146.085346,134.848992 145.724381,134.540831 145.524819,133.873063 C145.313913,133.165167 145.631046,132.263321 145.468612,131.646484 C145.180356,130.550687 144.320229,129.665303 144.297024,129.141069 C144.185641,126.636168 143.460102,125.856762 144.01805,119.565957 C144.01805,119.565957 144.338277,115.193055 143.850459,113.831797 C143.850459,113.831797 143.252805,110.936421 142.678871,109.099288 C142.336986,108.005033 142.728891,104.902845 142.399897,103.755602 C141.901766,102.017759 142.065231,100.587563 142.065231,100.025774 C142.065231,100.025774 141.339693,96.2398695 140.781744,96.2954311 C140.059815,96.3674554 139.72154,103.476765 139.72154,103.476765 C139.72154,103.476765 139.762793,109.283979 139.274975,112.106301 C139.274975,112.106301 138.912463,115.474979 139.107384,116.447821 C139.107384,116.447821 140.000514,118.11724 139.442566,120.177134 C139.399766,121.261614 139.014049,123.1291 138.939794,124.464122 C138.915042,124.919932 139.248676,126.498807 139.219283,126.970052 C139.089336,129.05001 139.209486,129.968833 138.981047,131.984998 C138.900087,132.700096 138.477243,133.494421 138.381845,134.150871 C138.311715,134.632919 138.515918,135.327953 138.437537,135.764729 C138.437537,135.764729 138.21477,137.491253 136.819384,137.769061 C136.819384,137.769061 135.871079,138.047898 135.871079,138.937912 C135.755054,139.306265 136.32641,140.229205 136.205744,140.663922 C136.120144,140.971569 135.895315,141.449501 135.814871,141.777212 C135.695237,142.265433 136.29547,142.503113 136.205744,143.002139 C136.100549,143.585535 136.864247,144.892776 136.763693,145.395917 C136.577538,146.328116 136.115503,146.652226 135.993291,146.944438 L126.240543,146.944438 C126.240543,146.944438 124.935398,146.589462 126.105439,144.839272 C126.105439,144.839272 127.512685,144.069641 128.114465,142.891016 C128.379516,142.370898 127.7963,141.606411 128.039178,141.071888 C128.473367,140.11448 128.803392,139.240414 128.783796,138.826789 C128.728105,137.657938 127.891182,137.824623 128.337747,135.931928 C128.839488,135.26416 129.255113,135.022879 129.34226,134.595878 C129.445393,134.087078 129.464472,132.557591 129.565027,132.034901 C129.869784,130.448824 129.620719,129.062871 129.620719,128.471758 C129.620719,128.471758 129.118978,124.576274 129.565027,116.225574 C129.559355,115.84436 129.118462,115.111771 129.34226,114.387927 C129.565027,113.609036 130.506113,113.258689 130.513848,112.885192 C130.520036,112.595551 130.055939,111.26053 130.067283,110.992497 C130.081206,110.666844 129.989418,109.947116 130.011592,109.655932 C130.088941,108.637304 129.9559,108.209274 129.732618,107.707676 C129.732618,107.707676 128.670866,105.955429 128.144889,102.107789 C127.794238,99.7181271 127.911293,92.9560774 127.327046,86.1364084 C127.327046,86.1364084 127.151721,84.6794604 125.28244,84.1547121 C125.28244,84.1547121 117.453117,80.3075874 113.713524,76.9852109 C113.713524,76.9852109 110.675749,75.3533468 110.325097,73.3716506 C110.118832,72.4440809 110.909344,70.4572401 111.668917,68.3587616 C112.019053,66.0843382 111.955626,64.2014181 112.019053,62.9960406 C112.019053,62.9960406 112.954467,52.446029 111.668917,46.7334757 C111.668917,46.7334757 110.033232,43.0026188 107.403862,39.1560085 C104.774493,35.3088838 101.755282,33.2922043 96.87865,29.1086234 C96.87865,29.1086234 96.0004747,28.4269651 96.1959112,27.5513558 C96.1959112,27.5513558 95.3182516,27.065192 94.5380524,26.6757465 C94.5380524,26.6757465 92.5842025,26.0728005 91.7065428,22.2791795 C91.7065428,22.2791795 88.097928,20.2352338 88.0004676,18.5812479 C88.0004676,18.5812479 87.9050698,16.6345349 90.439557,16.6350494" id="Fill-3"></path>
                <path d="M196.981673,13.6297492 C196.981673,13.6297492 197.063701,12.3237934 197.470743,11.9160703 C197.876754,11.5078297 198.610359,10.2836256 198.691355,9.54941351 C198.691355,9.54941351 200.155469,7.67171403 201.294569,6.61049561 C201.294569,6.61049561 201.702127,5.30505726 200.562511,6.1210209 C200.562511,6.1210209 199.504408,7.01925356 199.016369,7.26399091 C199.016369,7.26399091 198.44682,7.18223932 198.609843,6.1210209 C198.609843,6.1210209 199.097365,3.83559831 199.178877,2.36665677 C199.178877,2.36665677 199.016369,0.326488943 197.633251,0 C197.633251,0 196.494151,0.244737353 195.598555,1.87718207 C195.598555,1.87718207 194.784986,3.26488943 194.947493,4.40734202 C194.947493,4.40734202 194.78447,5.71329779 194.540451,6.44802726 C194.540451,6.44802726 194.13444,9.05942139 194.378459,9.79415086 C194.378459,9.79415086 194.378459,10.7736177 194.702958,11.2630924 C194.702958,11.2630924 194.865982,12.405545 194.621963,12.9772887 C194.621963,12.9772887 193.889905,13.7120182 193.889905,14.3644786 C193.889905,14.3644786 193.888874,15.4251796 194.21492,15.752186 L193.970901,16.812887 C193.970901,16.812887 192.262252,16.5681497 191.529163,17.6288507 C191.529163,17.6288507 190.960645,18.3640975 191.041641,20.7307543 C191.041641,20.7307543 190.797106,24.0768779 190.960645,25.3833511 C190.960645,25.3833511 190.960645,28.9747295 190.797106,29.8719273 C190.797106,29.8719273 190.797106,31.2596347 190.471575,31.9938467 C190.471575,31.9938467 189.495499,33.4627882 190.146044,34.768744 C190.146044,34.768744 190.390063,35.5034735 190.797106,36.4017061 C190.797106,36.4017061 191.123152,37.7888961 191.285144,39.0953693 C191.285144,39.0953693 191.855725,40.3195735 192.424243,40.9720339 C192.424243,40.9720339 192.424759,41.9515007 192.831802,42.6044786 C192.831802,42.6044786 193.23936,43.0934359 193.563859,43.4204423 C193.563859,43.4204423 193.888874,43.5839455 194.052413,44.8086671 C194.052413,44.8086671 194.215436,45.2976243 194.784986,45.9511196 C194.784986,45.9511196 195.436047,46.4405944 195.598555,46.9300691 C195.598555,46.9300691 196.087625,47.6642811 196.494151,47.9907701 C196.494151,47.9907701 197.063185,48.2360248 197.226208,48.726017 C197.226208,48.726017 198.040293,49.3784774 198.202801,49.6226974 C198.202801,49.6226974 198.690839,50.3579443 198.609843,51.0921563 C198.609843,51.0921563 198.528331,53.867571 198.283796,55.010541 C198.283796,55.010541 197.713731,56.3972136 197.063185,57.6214177 C197.063185,57.6214177 196.656659,59.1721109 196.656659,59.9891093 C196.656659,59.9891093 196.167589,61.7845398 195.435531,63.9064592 C195.435531,63.9064592 195.110517,65.4576698 194.865982,66.7625907 C194.865982,66.7625907 194.13444,67.742575 194.052413,68.3138013 C194.052413,68.3138013 194.051897,69.5380054 193.888874,70.2727349 C193.888874,70.2727349 193.401867,71.5781733 192.994825,72.6399091 C192.994825,72.6399091 192.424243,74.1900848 192.424243,74.9248143 C192.424243,74.9248143 192.262252,76.0677843 191.773698,77.1290027 C191.773698,77.1290027 190.878101,78.1891863 190.960645,79.3316389 C190.960645,79.3316389 190.879133,80.5563605 190.71611,81.1275868 C190.71611,81.1275868 190.308552,82.351791 191.692186,83.4130094 C191.692186,83.4130094 192.506271,84.3102072 192.912797,84.6366961 C192.912797,84.6366961 196.73817,86.6778988 197.87727,87.0038703 C197.87727,87.0038703 199.423928,87.4938625 199.016885,88.7998182 C199.016885,88.7998182 198.609843,90.9222551 198.44682,94.7578534 C198.44682,94.7578534 198.202285,98.6752033 198.121289,99.8176558 C198.121289,99.8176558 197.551739,102.593071 197.87727,104.225515 C197.87727,104.225515 198.202801,106.837944 197.633251,109.368104 C197.633251,109.368104 196.982189,112.631959 196.901194,113.611943 C196.901194,113.611943 196.575147,116.059834 196.168105,116.876315 C196.168105,116.876315 195.355052,118.345257 195.518075,120.30419 C195.518075,120.30419 194.786018,125.36451 194.948009,128.792903 C194.948009,128.792903 194.784986,130.343596 195.111033,131.486048 C195.111033,131.486048 195.110517,132.302012 194.702958,133.036742 C194.702958,133.036742 192.831802,134.995675 192.424243,137.851807 C192.424243,137.851807 192.343248,139.566003 191.61119,140.871959 C191.61119,140.871959 191.204148,141.360916 191.041641,142.177397 C191.041641,142.177397 190.308552,143.156864 189.088456,143.891593 C189.088456,143.891593 187.786849,145.197032 188.030352,146.095264 C188.030352,146.095264 188.437395,146.99298 188.844437,146.99298 L199.178877,146.99298 C199.178877,146.99298 200.969554,146.911746 200.888558,145.198067 C200.888558,145.198067 200.481,143.809324 200.644539,142.993361 C200.644539,142.993361 201.132577,141.687922 201.132577,141.116696 C201.132577,141.116696 200.563027,139.892492 200.563027,139.320748 C200.563027,139.320748 200.969554,137.607069 200.969554,136.790588 C200.969554,136.790588 200.482547,135.077427 201.132577,134.424449 C201.132577,134.424449 201.539619,134.342697 201.539619,133.444465 C201.539619,133.444465 201.377112,132.220261 202.353704,132.220261 C202.353704,132.220261 203.248785,132.464998 203.248785,129.934838 C203.248785,129.934838 202.841742,128.547648 203.736823,127.078706 C203.736823,127.078706 204.306889,125.609247 204.306889,121.773132 C204.306889,121.773132 204.224861,116.876315 205.445472,115.24387 C205.445472,115.24387 206.015022,113.529157 205.934026,112.060215 C205.934026,112.060215 206.015022,110.91828 206.50306,109.938813 C206.50306,109.938813 206.340037,109.041098 206.910618,108.306886 C206.910618,108.306886 207.398657,107.571639 207.398657,106.266201 C207.398657,106.266201 207.725735,103.735523 208.375765,102.022362 C208.375765,102.022362 208.293737,101.205363 209.02631,99.8999249 C209.02631,99.8999249 209.840911,98.6757207 210.08493,96.9620418 C210.08493,96.9620418 211.061522,95.9008234 211.468564,94.2688961 C211.468564,94.2688961 211.875091,91.166475 213.58374,91.166475 C213.58374,91.166475 215.536925,91.1669924 216.025994,94.1053929 C216.025994,94.1053929 216.59606,95.0843423 217.003103,96.0638091 C217.003103,96.0638091 217.247122,98.0227428 217.73516,99.8181733 C217.73516,99.8181733 218.711236,101.858341 218.874259,103.164814 C218.874259,103.164814 218.873228,104.47077 219.036251,105.695492 C219.036251,105.695492 220.013875,108.306886 220.013875,109.694593 C220.013875,109.694593 220.256862,112.061767 220.420401,112.959483 C220.420401,112.959483 221.23397,114.836147 221.23397,115.570359 C221.23397,115.570359 221.234486,117.040336 221.396993,117.775065 C221.396993,117.775065 221.80352,119.488227 221.640497,120.7947 C221.640497,120.7947 221.559501,123.976803 222.047539,125.528531 C222.047539,125.528531 222.943135,127.160975 222.86214,128.303428 C222.86214,128.303428 223.350694,129.52815 223.431174,130.261844 C223.431174,130.261844 223.269698,131.15956 223.675709,131.5678 C223.675709,131.5678 224.489793,131.894806 224.489793,132.547267 C224.489793,132.547267 224.244742,133.037259 223.756704,133.444982 C223.756704,133.444982 223.186639,134.506201 223.756704,135.077944 C223.756704,135.077944 224.89632,135.649688 224.814808,136.546368 C224.814808,136.546368 224.652301,138.505819 224.489793,139.730024 C224.489793,139.730024 224.244742,141.116696 224.651785,142.096163 C224.651785,142.096163 225.058311,142.994396 224.733296,144.62684 C224.733296,144.62684 224.082235,146.993497 225.221335,146.993497 L234.254167,146.993497 C234.254167,146.993497 235.718798,147.156483 235.718798,145.850527 C235.718798,145.850527 235.15028,144.545089 233.847125,143.973862 C233.847125,143.973862 233.52211,141.607206 232.952044,139.730024 C232.952044,139.730024 232.38301,138.750039 232.138991,137.362849 C232.138991,137.362849 231.975968,135.403398 231.324907,134.832172 C231.324907,134.832172 230.754841,134.09796 231.080372,133.036742 C231.080372,133.036742 231.162399,131.976041 230.999892,131.486048 C230.999892,131.486048 231.080372,130.508134 231.487414,130.181128 C231.487414,130.181128 231.975968,130.42483 231.56841,127.65045 C231.56841,127.65045 231.486898,124.956787 231.080372,123.406611 C231.080372,123.406611 230.673845,121.855918 230.755357,120.631714 C230.755357,120.631714 230.672813,119.162255 230.510822,118.428043 C230.510822,118.428043 230.0233,117.203321 230.185807,116.387875 C230.185807,116.387875 229.615741,115.081402 229.290211,114.428424 C229.290211,114.428424 229.208699,112.46949 228.882652,111.654044 C228.882652,111.654044 228.96468,110.266854 228.96468,109.205636 C228.96468,108.144417 228.313618,107.327419 228.476126,106.674958 C228.638633,106.021981 229.04516,105.369003 229.127187,104.308302 C229.127187,104.308302 228.801141,95.820624 228.882652,93.9429245 C228.882652,93.9429245 228.881621,92.5546998 228.801141,91.8204877 C228.720145,91.0857582 228.069084,90.270312 228.313618,89.6985683 C228.557122,89.127342 228.964164,88.6373499 229.127187,87.2501599 C229.127187,87.2501599 228.882652,78.843199 229.04516,77.1290027 C229.04516,77.1290027 230.916832,72.314455 230.835321,67.9883471 C230.835321,67.9883471 230.510822,61.2960999 230.672813,58.1941963 C230.672813,58.1941963 230.50979,56.7252548 232.299951,56.9699921 C232.299951,56.9699921 239.949665,57.7864732 242.309376,56.48 L244.181565,54.6850869 C244.181565,54.6850869 244.83211,54.1945774 245.97121,53.9508749 C245.97121,53.9508749 249.797098,53.7051027 255.330089,52.6444017 C255.330089,52.6444017 259.806523,51.6649349 260.619576,51.6649349 C260.619576,51.6649349 261.433661,51.3379285 261.433661,50.0319727 C261.433661,50.0319727 261.189642,48.6453002 262.735784,48.6453002 C262.735784,48.6453002 264.200414,48.399528 264.688968,48.6453002 C264.688968,48.6453002 267.69974,49.0525059 269.164371,48.4812796 C269.164371,48.4812796 271.443602,47.5028476 272.664213,47.5028476 C272.664213,47.5028476 274.290835,47.1758412 274.697877,46.6046149 C274.697877,46.6046149 275.511962,46.7676007 276,45.7063823 C276,45.7063823 275.267943,44.5639297 272.012636,44.4826955 C272.012636,44.4826955 268.920352,44.7274329 266.967683,45.1356734 C266.967683,45.1356734 264.362922,45.217425 263.549869,45.3798934 C263.549869,45.3798934 261.921699,45.5439139 261.67768,45.4616449 C261.67768,45.4616449 261.67768,44.2379582 261.189126,44.074455 C261.189126,44.074455 259.235942,43.6662145 258.340861,43.9927034 C258.340861,43.9927034 255.411601,43.5027113 254.435524,43.6662145 C254.435524,43.6662145 252.807871,43.8292002 252.238321,44.2374408 C252.238321,44.2374408 251.09819,44.8899012 250.203625,44.7263981 C250.203625,44.7263981 248.49446,44.6451639 247.680891,45.135156 C247.680891,45.135156 246.542307,45.4611275 246.21626,45.5433965 C246.21626,45.5433965 245.32118,45.7876165 244.670119,45.4611275 C244.670119,45.4611275 243.123977,45.135156 242.391919,45.7063823 C242.391919,45.7063823 241.333816,46.1953396 240.764266,45.7870991 C240.764266,45.7870991 240.032209,45.3793759 239.136612,45.7870991 C239.136612,45.7870991 238.403523,45.7876165 237.589954,45.4611275 C237.589954,45.4611275 236.125324,45.3793759 235.393267,45.7870991 C235.393267,45.7870991 234.009632,46.0328712 233.358571,45.3793759 C233.358571,45.3793759 232.382495,44.5639297 231.079856,44.8086671 C231.079856,44.8086671 229.94024,44.8086671 229.127187,44.2369233 C229.127187,44.2369233 228.313618,43.3402429 227.418022,43.4209597 C227.418022,43.4209597 226.848988,43.2579739 226.44143,43.0939533 C226.44143,43.0939533 225.628377,42.8497334 225.220819,43.0127192 C225.220819,43.0127192 224.650753,42.604996 224.40725,42.5232445 C224.40725,42.5232445 222.861624,42.4414929 222.454065,42.6862302 C222.454065,42.6862302 221.722008,42.7674644 221.80352,41.3807919 C221.80352,41.3807919 221.476957,40.4825592 221.395962,39.8300987 C221.395962,39.8300987 221.396478,38.8501145 221.80352,38.2794056 C221.80352,38.2794056 221.966027,37.4624071 221.884516,36.6459261 C221.884516,36.6459261 221.395446,35.4222393 221.639465,34.6875098 C221.639465,34.6875098 222.046507,32.4020872 221.151427,31.0961315 C221.151427,31.0961315 220.094355,29.3819352 219.606317,28.2394826 C219.606317,28.2394826 218.629208,26.6075553 216.920043,26.1175632 C216.920043,26.1175632 214.560332,25.4645853 213.177214,25.6280885 C213.177214,25.6280885 210.816987,25.5463369 210.084414,26.6893069 C210.084414,26.6893069 210.003418,27.0152784 209.351841,27.4240363 C209.351841,27.4240363 208.619268,27.9135111 208.619268,28.4847373 C208.619268,28.4847373 207.806215,30.5249052 207.643191,31.5856062 C207.643191,31.5856062 206.99213,34.034532 207.318177,34.6875098 C207.318177,34.6875098 208.050234,35.5034735 208.050234,36.0752172 C208.050234,36.0752172 207.968206,36.4829403 207.318177,37.1359182 C207.318177,37.1359182 207.155153,37.7888961 207.399172,38.1971366 C207.399172,38.1971366 208.456244,39.3390718 207.480168,39.2578376 C207.480168,39.2578376 206.179077,38.9313487 205.44702,39.3401066 C205.44702,39.3401066 205.120457,40.1555529 203.656343,38.5236256 C203.656343,38.5236256 203.00425,38.2794056 202.760747,36.8099467 C202.760747,36.8099467 202.679235,34.9327646 201.377628,34.2797867 C201.377628,34.2797867 200.237497,33.9532978 200.40052,32.3208531 C200.40052,32.3208531 200.155985,31.6673578 199.830454,30.6066568 C199.830454,30.6066568 199.505439,27.831242 199.830454,26.0358116 C199.830454,26.0358116 200.563543,24.1586295 199.912482,22.6079364 C199.912482,22.6079364 199.179393,20.5672511 199.505439,19.7512875 C199.505439,19.7512875 199.749458,18.3635801 198.447336,18.2005944 L197.226724,17.7111197 C197.226724,17.7111197 196.901709,17.1398934 197.064217,16.4051639 C197.064217,16.4051639 197.79679,15.9964059 197.79679,14.9357049 C197.79679,14.9357049 197.876754,13.7115008 196.981673,13.6297492" id="Fill-4"></path>
                <path d="M281.671649,31.0147725 C281.671649,31.0147725 281.503215,30.0988684 281.166867,29.4338758 C281.166867,29.4338758 280.154704,27.852979 279.227277,28.2691125 C279.227277,28.2691125 279.312014,27.6030936 279.227277,27.2705973 C279.227277,27.2705973 279.14306,26.1889581 278.890409,25.6902136 C278.890409,25.6902136 278.637239,25.2740801 278.384068,25.2740801 L278.131417,22.6115441 C278.131417,22.6115441 278.468285,20.9480364 278.468285,20.1988935 C278.468285,20.1988935 278.805673,18.4512354 278.805673,17.8688537 C278.805673,17.8688537 279.058843,16.287957 279.479928,15.9549475 C279.479928,15.9549475 279.817316,14.7901842 278.974107,15.1231937 C278.974107,15.1231937 277.709292,16.2048329 277.540858,16.8703386 C277.540858,16.8703386 277.035556,13.2929246 276.866603,12.2944095 C276.866603,12.2944095 275.26544,9.38198814 273.663758,12.2944095 C273.663758,12.2944095 272.736851,13.5422969 273.073719,14.8733083 C273.073719,14.8733083 273.410587,17.2028349 273.410587,18.118226 C273.410587,18.118226 273.916409,20.780762 274.16906,21.3631436 C274.16906,21.3631436 274.422231,22.2790478 274.759098,22.8609164 C274.759098,22.8609164 275.180703,24.6916985 275.180703,25.107832 C275.180703,25.107832 274.674881,25.2740801 274.674881,25.6902136 C274.674881,25.6902136 274.674362,27.7698549 275.26492,28.6847328 C275.26492,28.6847328 275.349137,29.0177423 275.855479,29.1008663 C275.855479,29.1008663 275.097526,29.2671145 275.26544,30.3487537 C275.26544,30.3487537 275.771262,33.9261677 276.192347,35.090931 C276.192347,35.090931 277.20347,36.755465 277.288207,38.1701136 C277.288207,38.1701136 277.541378,40.250268 278.215634,41.1651459 C278.215634,41.1651459 279.058843,43.4110353 278.890409,46.2403326 C278.890409,46.2403326 278.805153,47.48822 278.551982,49.5683743 C278.551982,49.5683743 277.962983,51.2323952 277.625075,51.8147769 C277.625075,51.8147769 277.035036,53.72817 277.035036,54.4767998 C277.035036,54.4767998 276.781866,56.2239447 276.360781,57.1398489 C276.360781,57.1398489 275.517571,59.5530127 275.686525,60.8009 C275.686525,60.8009 275.26492,63.8790564 274.928052,64.5445622 C274.928052,64.5445622 274.252757,66.7078406 274.337494,68.0393652 C274.337494,68.0393652 274.16906,69.1215175 274.422231,69.9532714 C274.422231,69.9532714 274.928052,71.0338844 275.601788,71.8661514 C275.601788,71.8661514 279.732579,76.6088417 280.575789,77.690481 C280.575789,77.690481 281.502696,78.4396239 281.755347,79.2713777 C281.755347,79.2713777 282.935424,80.6860264 283.694417,81.5177803 C283.694417,81.5177803 288.751595,86.8428523 290.26958,88.0081287 C290.26958,88.0081287 290.354317,96.4949943 290.438534,97.992767 C290.438534,97.992767 290.438534,102.98483 290.522751,103.649822 C290.522751,103.649822 290.606448,104.232204 290.775402,104.815099 C290.775402,104.815099 291.197526,106.145597 290.691185,107.061501 C290.691185,107.061501 290.353797,109.224267 290.438014,110.8888 C290.438014,110.8888 290.859099,113.301964 290.522231,115.049109 C290.522231,115.049109 290.2701,116.879378 289.932712,117.877893 C289.932712,117.877893 289.42689,120.041172 289.510587,121.622069 C289.510587,121.622069 289.342153,124.284605 289.42637,126.281122 C289.42637,126.281122 289.594284,129.026782 289.931672,130.690803 C289.931672,130.690803 290.521711,132.854081 289.510067,133.519587 C289.510067,133.519587 288.414207,133.936234 288.077859,134.101969 C288.077859,134.101969 286.476176,134.850598 287.993122,135.433493 C287.993122,135.433493 289.342153,135.266219 289.342153,136.097973 C289.342153,136.097973 289.342153,136.681381 288.58368,137.263762 C288.58368,137.263762 287.824168,138.345401 288.836331,138.428525 C288.836331,138.428525 289.763758,137.76302 289.595324,139.093518 C289.595324,139.093518 289.679541,140.008396 289.342153,141.007937 C289.342153,141.007937 289.005285,141.756567 288.414727,142.338949 C288.414727,142.338949 287.48782,142.838206 287.572037,143.836208 L287.656254,144.918361 C287.656254,144.918361 287.739951,146 288.58368,146 L295.326758,146 C295.326758,146 296.591572,146 296.591572,144.585351 C296.591572,144.585351 296.225592,143.144534 296.685147,141.843283 C296.766244,141.612383 296.873335,141.387127 297.012657,141.174186 C297.012657,141.174186 297.856386,139.676413 297.687433,136.681381 L297.266348,134.185093 C297.266348,134.185093 296.423138,132.604196 296.423138,131.93869 C296.423138,131.93869 296.253664,130.940175 296.760006,130.524041 C296.760006,130.524041 297.350045,129.276154 297.603216,127.945143 C297.603216,127.945143 297.687433,125.448855 298.024301,124.700225 C298.024301,124.700225 298.86751,122.037689 299.121201,120.206907 C299.121201,120.206907 299.373852,116.712104 299.625983,115.797226 C299.625983,115.797226 300.216541,113.384575 300.385495,111.553793 C300.385495,111.553793 300.80658,109.556763 300.80658,107.976379 C300.80658,107.976379 300.722363,106.145084 301.64927,104.647824 C301.64927,104.647824 302.156131,103.065901 302.239829,100.653764 C302.239829,100.653764 302.239829,98.3242371 302.660913,96.8269775 C302.660913,96.8269775 303.58834,94.4138137 304.263116,96.8269775 C304.263116,96.8269775 304.515767,98.4904853 304.768418,99.3227523 C304.768418,99.3227523 305.358976,101.902677 305.190022,103.399937 C305.190022,103.399937 305.442673,106.395482 305.863758,107.144112 C305.863758,107.144112 306.538534,108.724496 306.454317,110.721526 C306.454317,110.721526 306.454837,112.551795 306.791705,113.800196 C306.791705,113.800196 308.055999,115.546827 308.055999,117.128237 C308.055999,117.128237 308.056519,122.619044 308.140736,124.200454 C308.140736,124.200454 308.393907,126.446344 308.983426,128.027754 C308.983426,128.027754 309.40503,129.109393 309.320813,130.024271 C309.320813,130.024271 309.489247,131.438919 310.079806,131.93869 C310.079806,131.93869 311.006713,133.019303 310.500891,134.267191 C310.500891,134.267191 310.080326,137.678356 310.416674,138.59426 C310.416674,138.59426 310.921976,140.17567 311.006713,141.506682 C311.006713,141.506682 311.09093,143.087066 311.09093,143.919333 L311.175147,145.250344 C311.175147,145.250344 311.007233,145.998974 311.933619,145.998974 L320.110985,145.998974 C320.110985,145.998974 320.869457,145.499716 320.869457,144.7516 C320.869457,144.7516 320.447853,143.170703 319.68886,142.171674 C319.68886,142.171674 318.593519,140.507654 318.424566,139.592776 C318.424566,139.592776 318.172434,137.428984 318.340349,135.682352 C318.340349,135.682352 318.340349,134.184066 318.256132,133.685322 C318.256132,133.685322 318.087178,132.27016 317.834527,131.771929 C317.834527,131.771929 317.582396,130.024271 317.919264,129.10888 C317.919264,129.10888 318.256132,127.361735 317.834527,126.446344 C317.834527,126.446344 317.412922,124.86596 317.665573,123.368187 C317.665573,123.368187 317.75135,122.369672 317.497659,121.621556 C317.497659,121.621556 316.90762,120.289518 317.160791,119.291003 C317.160791,119.291003 317.159751,117.211361 316.822363,116.545343 C316.822363,116.545343 315.81124,115.213818 316.486015,113.965931 C316.486015,113.965931 316.570752,111.636917 316.149667,110.471641 C316.149667,110.471641 315.474892,108.724496 315.727543,108.224725 C315.727543,108.224725 315.979674,106.727466 316.064411,105.562702 C316.064411,105.562702 316.318101,100.487516 316.318101,99.1554779 C316.318101,99.1554779 316.149667,96.9921994 317.245008,95.8279493 C317.245008,95.8279493 319.268295,93.9976802 318.930907,89.9210087 C318.930907,89.9210087 320.363636,86.3435947 322.640094,84.5128126 C322.640094,84.5128126 323.652257,83.4316865 323.989125,83.2649252 C323.989125,83.2649252 325.000768,82.6825436 325.50659,83.5142974 C325.50659,83.5142974 325.421853,83.9299178 326.011892,83.9299178 C326.011892,83.9299178 325.842938,84.845822 326.011892,86.3435947 C326.011892,86.3435947 326.517194,90.0036197 327.276706,91.7512777 C327.276706,91.7512777 328.28783,93.4147855 328.625738,93.9135299 C328.625738,93.9135299 328.709955,94.2480787 329.384211,94.1644415 L330.2269,94.2475656 C330.2269,94.2475656 330.900636,93.9145562 331.238544,94.8299472 C331.238544,94.8299472 331.996497,96.328233 333.513962,96.6602162 C333.513962,96.6602162 335.116164,97.4919701 335.537249,96.5770922 C335.537249,96.5770922 336.380459,95.0793194 335.79042,93.5820598 C335.79042,93.5820598 335.453552,92.5830316 333.346048,89.5879993 C333.346048,89.5879993 331.491195,87.0080742 331.07011,86.4267188 C331.07011,86.4267188 330.901156,84.5128126 330.311117,83.2649252 C330.311117,83.2649252 331.490675,82.5989064 330.816939,81.2678949 C330.816939,81.2678949 329.721598,79.6033609 331.07011,78.4385976 L332.249667,77.2743475 C332.249667,77.2743475 333.092877,76.1085579 332.249667,74.3624392 C332.249667,74.3624392 331.575412,73.1971628 331.575412,72.2817717 C331.575412,72.2817717 330.648505,71.2001325 330.2269,70.2852546 C330.2269,70.2852546 329.97321,68.95373 329.214737,68.0383389 C329.214737,68.0383389 327.614094,65.7098386 327.44514,64.7944475 C327.44514,64.7944475 326.855622,62.9631523 326.434017,62.7132669 C326.434017,62.7132669 326.096629,61.6321408 325.759761,61.1328832 C325.759761,61.1328832 325.084985,60.0507309 324.748117,59.8013587 C324.748117,59.8013587 324.41021,59.0527289 323.989125,58.220975 C323.989125,58.220975 322.809047,56.4733169 322.134272,55.558439 C322.134272,55.558439 321.460016,55.0591814 321.291062,54.2274275 C321.291062,54.2274275 320.027288,52.0641491 319.015124,51.3981302 C319.015124,51.3981302 316.234404,49.7341094 315.475931,48.568833 C315.475931,48.568833 314.801676,48.0700885 314.379551,47.1546974 C314.379551,47.1546974 313.958466,45.7400488 312.946303,45.6569247 C312.946303,45.6569247 311.682528,45.5743138 312.525218,44.2427892 C312.525218,44.2427892 313.199473,43.16115 312.777869,41.6628642 C312.777869,41.6628642 312.18731,39.4169747 312.946303,38.6683449 C312.946303,38.6683449 313.452124,38.2522114 312.946303,36.8375628 C312.946303,36.8375628 312.356784,35.256666 313.199473,34.424399 C313.199473,34.424399 314.211117,33.5931583 313.367907,32.0117484 C313.367907,32.0117484 312.777869,31.0958442 312.777869,30.3477275 C312.777869,30.3477275 312.946303,29.1829642 311.598311,28.4338213 C311.598311,28.4338213 310.080326,27.6846784 309.237636,28.1008119 C309.237636,28.1008119 307.973342,28.1839359 307.214869,27.6846784 C307.214869,27.6846784 305.781621,27.3526952 304.601543,28.0182009 C304.601543,28.0182009 303.842551,28.0182009 303.420946,28.1008119 C303.420946,28.1008119 302.915644,28.1839359 302.071914,29.0998401 C302.071914,29.0998401 300.891837,29.8484699 300.301798,30.0978421 C300.301798,30.0978421 299.459108,30.8469851 299.374891,31.761863 L299.206458,33.5926451 C299.206458,33.5926451 299.628582,34.9236566 300.133884,35.5891623 C300.133884,35.5891623 301.228705,37.086935 300.892357,38.0859633 C300.892357,38.0859633 300.470232,39.3328244 300.723403,39.9988433 C300.723403,39.9988433 300.723923,40.581738 300.976574,40.9978715 C300.976574,40.9978715 301.566613,41.330881 301.060271,42.9112646 L300.80814,44.4095505 C300.80814,44.4095505 300.723923,45.2413043 299.96493,44.9082949 C299.96493,44.9082949 299.291194,44.5752855 298.532202,44.8251708 C298.532202,44.8251708 297.521598,44.8251708 296.762085,43.8266557 C296.762085,43.8266557 295.750442,42.9954149 294.738798,43.5772835 C294.738798,43.5772835 293.811892,43.8266557 293.474504,43.4110353 C293.474504,43.4110353 292.378124,42.246272 291.534914,42.246272 C291.534914,42.246272 290.861178,41.4971291 290.776961,40.8311103 C290.776961,40.8311103 290.861178,39.8331082 289.006325,39.0844784 C289.006325,39.0844784 287.404123,38.6683449 286.561433,38.1696005 C286.561433,38.1696005 285.971914,36.5881906 285.044488,35.6733126 C285.044488,35.6733126 283.189115,34.3407618 283.021201,33.6762823 C283.021201,33.6762823 282.346425,32.3442447 282.177991,32.0117484 L281.671649,31.0147725" id="Fill-5"></path>
            </g>
        </g>
    </g>
</svg>