<?xml version="1.0" encoding="UTF-8"?>
<svg width="602px" height="326px" viewBox="0 0 602 326" version="1.1" xmlns="http://www.w3.org/2000/svg" xmlns:xlink="http://www.w3.org/1999/xlink">
    <!-- Generator: Sketch 48.2 (47327) - http://www.bohemiancoding.com/sketch -->
    <title>TheBeatles</title>
    <desc>Created with Sketch.</desc>
    <defs></defs>
    <g id="Page-1" stroke="none" stroke-width="1" fill="none" fill-rule="evenodd">
        <g id="TheBeatles" fill="#1A1919">
            <g id="Label_S" transform="translate(241.000000, 29.000000)">
                <path d="M50.3903946,10.3667102 L50.3903946,13.0995221 C50.3903946,19.836414 50.404616,23.639331 50.4404329,24.5103467 C50.4704559,25.2512285 50.603189,25.8230918 50.8323118,26.2264551 C50.9797931,26.4680582 51.2420992,26.7257337 51.6187033,27 L45.3818234,27 C45.643076,26.7096614 45.9053821,26.4281367 46.1671615,26.1538704 C46.4784524,25.7183626 46.6417353,25.1625716 46.6585903,24.485979 C46.7075752,23.5024571 46.7318043,19.7233894 46.7318043,13.1477391 L46.7318043,10.2941256 C46.7318043,8.18346783 46.7075752,6.87798116 46.6585903,6.37870249 L45.3323118,6.32996709 C44.7755698,6.31389477 44.2520111,6.49069023 43.761109,6.86139038 C43.4008332,7.13565664 43.1469546,7.44154907 43,7.78010459 C43,7.55457373 43.0732139,7.23986745 43.221222,6.83598575 C43.4008332,6.33670709 43.5225053,5.93282539 43.5893986,5.62693296 C43.6547117,5.41747442 43.7774373,4.92493576 43.9575752,4.15139083 C44.3336526,4.13480005 44.9715093,4.13480005 45.8727255,4.15139083 C46.9203697,4.15139083 47.7062344,4.15139083 48.2297931,4.15139083 C50.4072496,4.15139083 51.9700249,4.10110004 52.920226,4 C52.9360276,4.32559398 53.0914097,4.96693116 53.3858456,5.92660385 C53.5665102,6.39788558 53.7714039,7.01641044 54,7.78010459 C53.6070676,7.3124521 53.3126317,7.00707813 53.1161655,6.86139038 C52.5920801,6.47513638 52.011109,6.29782246 51.3727255,6.32996709 L50.3661655,6.37870249 C50.3814403,6.68511339 50.3814403,7.22483206 50.3661655,7.99785853 C50.3824938,9.07833281 50.3903946,9.86795005 50.3903946,10.3667102" id="Fill-6"></path>
                <path d="M62.3966247,14.7382503 L62.3966247,19.3204676 C62.3966247,23.2910325 63.3891586,26 62.8282507,26 L58.8915947,26 C59.1470678,25.243973 59.2748044,24.2866492 59.2748044,23.1275113 L59.2748044,17.0953367 L55.5297532,17.0953367 L55.5065752,22.6457446 C55.5065752,24.2550834 55.6255557,25.3728236 55.8660919,26 L52,26 C52.2719553,25.2605321 52.408448,24.3761719 52.408448,23.3469195 L52.408448,14.7874102 C52.408448,12.8096311 52.3919659,11.5718373 52.3605468,11.0735115 C52.3286127,10.2859187 52.2075719,9.59457567 52,9 C52.0963175,9 52.2719553,9 52.5279435,9 L55.8176756,9 C55.6255557,9.67374893 55.5297532,10.5570742 55.5297532,11.6484232 L55.5297532,14.875898 L59.2748044,14.875898 C59.2835606,13.3509071 59.2835606,12.1301899 59.2748044,11.2147814 C59.2588373,10.3645745 59.1553089,9.62665896 58.963704,9 C59.1553089,9 59.4591984,9 59.8753724,9 L62.8771821,9 C62.7963166,9.16041641 62.6855772,9.54645075 62.5418736,10.1570681 C62.4455561,11.0574699 62.3966247,12.5850481 62.3966247,14.7382503" id="Fill-7"></path>
                <path d="M67.1419252,17.554221 L67.0922073,22.458857 C67.0826869,23.4730553 67.0969676,24.0462302 67.1175952,24.1742358 C67.1630818,24.4489037 67.3302186,24.5846829 67.6094852,24.5846829 C67.7094499,24.5846829 67.9226023,24.5608438 68.2510578,24.5121291 C69.319464,24.3675398 70.0091678,24.2302058 70.3233427,24.1011638 C70.73378,23.9249617 71.2917842,23.4818654 72,22.7729112 C71.9010931,23.5114051 71.7270804,24.5867559 71.4811354,26 L67.75811,26 C67.7755642,26 66.9927715,26 65.4155501,26 C64.462976,25.9834163 63.6733075,25.9834163 63.049189,26 C63.1803597,25.6776539 63.2623413,25.4522189 63.2956629,25.3231768 C63.3765867,25.0816764 63.4268336,24.7676221 63.4432299,24.3810141 C63.4924189,23.5114051 63.5172779,21.8675436 63.5172779,19.4515025 L63.5172779,15.1500995 C63.5172779,13.9425972 63.5088152,12.7501238 63.4924189,11.5742343 C63.4596262,10.768369 63.4104372,10.2045224 63.3453808,9.88217631 C63.3104725,9.70545601 63.196756,9.41524087 63,9.01204911 C63.2956629,8.99598363 63.7642807,8.99598363 64.4053244,9.01204911 L71.4811354,9.01204911 C71.4975317,9.02863283 71.4578632,9.44167118 71.3584274,10.2511641 L71.1854725,11.562833 C70.9717913,11.2404868 70.7988364,11.0523652 70.6671368,10.9953587 C70.5364951,10.9388704 70.2323695,10.8948199 69.7558181,10.8626889 C68.9825458,10.813456 68.102433,10.8062006 67.1175952,10.8383316 L67.1175952,15.5247879 L68.3013047,15.5247879 C69.0571227,15.5247879 69.5331453,15.5087225 69.731488,15.4760733 C70.0419605,15.4444605 70.346615,15.3397758 70.6422779,15.1625372 L70.6385755,16.3705578 C70.6385755,17.4179235 70.6396333,17.940829 70.6422779,17.940829 C70.3148801,17.6837813 69.7066291,17.554221 68.8180536,17.554221 L67.1419252,17.554221" id="Fill-8"></path>
                <path d="M9.10344828,30.6966895 L9.10344828,51.7009435 C9.10344828,53.3449084 9.33213757,54.4781024 9.78790189,55.1035568 C10.2442043,55.7295164 11.0997713,56.0058683 12.3567553,55.9351384 C15.7036904,55.7916577 17.3793103,51.3629556 17.3793103,42.646506 C17.3793103,39.8941025 16.8460607,37.1982829 15.7800995,34.5539951 C14.5623963,31.5181668 13.1165419,30 11.4430743,30 C11.4048697,30 10.6246357,30.2323982 9.10344828,30.6966895 Z M9.10344828,4.44423723 L9.10344828,24.4763838 C9.82010711,24.9157239 10.6296168,25.1351351 11.5357126,25.1351351 C12.5544034,25.1351351 13.4599656,24.3666782 14.2534665,22.8297642 C15.2342699,21.074474 15.7241379,18.8058441 15.7241379,16.0243921 C15.7241379,12.6954469 15.422106,9.95125342 14.819643,7.79181172 C14.0640295,5.19406493 12.9887744,3.95056184 11.5928105,4.06078496 C10.9519265,4.13323208 10.1205382,4.26156698 9.10344828,4.44423723 Z M2.01340689,37.4210485 L2.01340689,22.3330587 C2.01340689,16.3489325 1.98492275,12.041646 1.92953691,9.40967023 C1.87309611,6.77871379 1.6773995,4.68699639 1.34244709,3.13706642 C1.04494604,2.0917174 0.745335062,1.04687806 0.447306534,0 L11.9717796,0 C14.5443197,0 16.3905141,0.343522789 17.5098354,1.02801998 C19.2626651,2.1100658 20.5681883,4.30983487 21.42535,7.62834657 C21.9106354,9.721593 22.1532781,12.0283944 22.1532781,14.5533379 C22.1532781,19.2056762 21.4074155,22.8126655 19.9162179,25.3732864 C18.9461746,26.9604228 17.8453153,27.9512363 16.6157498,28.3477656 C17.8083914,28.7101465 18.6481461,29.0348112 19.1334315,29.3222694 C20.1398712,29.900244 20.9606365,30.7294896 21.5951999,31.8110258 C23.1976967,34.4078338 24,38.1774103 24,43.1172068 C24,50.0070304 22.6011121,54.8025881 19.8043913,57.5084672 C18.0515616,59.2398424 15.8503703,60.0675591 13.2024001,59.9956945 C9.95731774,59.9172041 5.92892151,59.8162879 1.11879382,59.6985524 C0.708411174,59.6985524 0.567572914,59.6985524 0.698388976,59.6985524 C0.828150069,59.6985524 0.874568672,59.6985524 0.837644783,59.6985524 C0.800720895,59.6985524 0.521154311,59.6985524 0,59.6985524 C1.11879382,58.4024419 1.7338403,56.6358989 1.84513945,54.4004524 C1.95749357,51.5523732 2.01340689,45.8924021 2.01340689,37.4210485 Z" id="Fill-9"></path>
                <path d="M29.3653659,45.1032459 L29.2776054,54.3314045 C29.2595518,56.2413244 29.2836233,57.3190352 29.3207334,57.5598557 C29.4009716,58.0768656 29.7013634,58.3327699 30.1978373,58.3327699 C30.3733584,58.3327699 30.7534869,58.2885588 31.3382228,58.1959755 C33.2368594,57.9239471 34.463501,57.6654422 35.0196521,57.4235814 C35.7508228,57.0912179 36.7427676,56.2574484 38,54.9227931 C37.8244789,56.3146628 37.5175678,58.3395316 37.080771,61 L30.460116,61 C30.4897038,61 29.1015828,61 26.295753,61 C24.6007209,60.9698324 23.1975552,60.9698324 22.0877605,61 C22.3209528,60.3945679 22.4673876,59.9696211 22.5260617,59.7256798 C22.6724965,59.2710856 22.760257,58.6807373 22.7898449,57.9525543 C22.8766024,56.3146628 22.9212349,53.2224859 22.9212349,48.6744632 L22.9212349,40.5760285 C22.9212349,38.3030574 22.9061903,36.0581734 22.8786084,33.843977 C22.8184297,32.3288364 22.7306692,31.2667295 22.6143238,30.6602571 C22.5551481,30.3263332 22.3510422,29.7807162 22,29.0234059 C22.5255603,28.992198 23.3590346,28.992198 24.4994202,29.0234059 L37.080771,29.0234059 C37.1088544,29.0535735 37.035637,29.831689 36.8611189,31.356192 L36.5542078,33.8273329 C36.1735778,33.2213806 35.8661652,32.8656112 35.6334744,32.7595046 C35.3992791,32.6528778 34.8581727,32.5696569 34.0111581,32.5088016 C32.6375803,32.4182988 31.0744397,32.4026949 29.3207334,32.4635502 L29.3207334,41.2828861 L31.4249804,41.2828861 C32.7679674,41.2828861 33.6154835,41.2527185 33.9665256,41.1923833 C34.5216737,41.1310079 35.0622786,40.9343985 35.5893434,40.6004746 L35.604388,42.874486 C35.604388,44.8442209 35.5983702,45.8298685 35.5893434,45.8298685 C35.0046074,45.3451067 33.9233976,45.1032459 32.3457138,45.1032459 L29.3653659,45.1032459" id="Fill-10"></path>
                <path d="M45.962963,47.8717949 L50.037037,47.8717949 L48.0732828,36.3846154 L45.962963,47.8717949 Z M53.5799798,41.6452576 L54.7991872,48.082645 C56.3047196,56.0607059 57.7053351,60.3659716 59,61 L55.1599361,61 C55.2493481,61 54.5872859,60.959497 53.1721991,60.8800487 C52.1178613,60.8187748 51.1234759,60.8597972 50.1905937,61 L50.7792656,60.0346775 C50.7482557,59.1768438 50.5673644,57.2280243 50.2371086,54.1913347 L44.7705734,54.1913347 C44.1974064,57.1361136 43.912115,58.8844949 43.912115,59.4359594 C43.912115,60.1728032 44.0764677,60.6941501 44.4087908,61 C44.1074776,60.9704016 43.5203561,60.9704016 42.6469096,61 C41.5010924,61 40.5682101,61 39.8456786,61 L37,61 C37.813494,60.5471968 38.460568,59.4603651 38.9417389,57.7363895 C39.3035215,56.5592049 40.0715343,53.1138499 41.2462941,47.4029209 L42.5120164,41.328503 C42.9926704,39.1828803 43.4738412,37.0382961 43.9570794,34.8926734 C44.3772641,33.049785 44.5886485,31.750572 44.5886485,30.9945152 C44.5886485,29.9372819 44.1974064,29.2720974 43.4144055,29 C43.9550121,29 44.7235417,29 45.7174102,29 L48.383748,29 C49.0747527,29 49.9037517,29 50.8681608,29 C51.8325698,29 52.6905114,29 53.4435361,29 C52.2692931,29.4232049 51.6821716,30.3002515 51.6821716,31.6290629 C51.6821716,32.3851197 51.8780511,33.6692738 52.2692931,35.4810061 C53.0517772,39.1989777 53.4879836,41.2532089 53.5799798,41.6452576 Z" id="Fill-11"></path>
                <path d="M65.9176646,44.6638736 L65.9176646,51.8124699 C65.9176646,59.3174629 65.9754854,64.2078465 66.0414213,66.4851702 C66.0977204,68.4246918 66.2884274,69.9225913 66.6622334,70.9752531 C66.9097467,71.6079865 67.3641974,72.2830743 68.0281214,73 L57.9105075,73 C58.3654654,72.2412364 58.7996281,71.5036501 59.21401,70.7867244 C59.7521486,69.6483207 60.0412522,68.1922591 60.081321,66.4221551 C60.1650089,63.8504167 60.2071064,59.0230481 60.2071064,51.9385 L60.2071064,44.4748284 C60.2071064,38.9506784 60.1650089,35.5354675 60.081321,34.2276463 L57.848122,34.1010996 C56.8961087,34.0587452 56.0059737,34.5230941 55.1782242,35.4920801 C54.6400857,36.2090058 54.2490349,37.0101237 54,37.894401 C54,37.259085 54.1242639,36.3505314 54.3717772,35.1651248 C54.6197977,33.4745644 54.7856519,32.2891577 54.8688326,31.6120039 C54.9920821,31.2742017 55.1990194,30.1962306 55.4886303,28.3760244 C56.1500183,28.3347031 57.2262955,28.3347031 58.7174617,28.3760244 C60.4957029,28.3760244 61.821015,28.3760244 62.6898476,28.3760244 C66.0825044,28.3760244 68.5865479,28.2515438 70.2009637,28 C70.2009637,28.3832557 70.4692722,29.8522302 71.0074107,32.404341 C71.2965144,33.8516219 71.6277156,35.6811253 72,37.894401 C71.3370904,36.6728381 70.8410493,35.8717201 70.5113697,35.4920801 C69.6415227,34.4807397 68.6702358,34.0179404 67.5944659,34.1010996 L65.9176646,34.2276463 C65.9455606,35.0297973 65.9455606,36.441955 65.9176646,38.4651523 C65.9455606,41.2910172 65.9455606,43.3565689 65.9176646,44.6638736" id="Fill-12"></path>
                <path d="M79.9760771,40.0355213 L79.8837581,46.1675781 L79.8837581,53.477858 C79.8837581,55.2345477 79.9301784,56.340073 80.0209326,56.7939148 C80.2040057,57.3687465 80.5993602,57.6564219 81.2075176,57.6564219 C81.540283,57.6564219 82.1640878,57.5655497 83.0747592,57.3843245 C84.3531416,57.1418256 85.4614903,56.6277485 86.4034563,55.8400162 C86.9495462,55.29686 87.4815536,54.752146 88,54.207432 C87.6646267,55.8680568 87.2838764,58.132073 86.8598352,61 C85.7640043,60.9387262 84.214924,60.9387262 82.2094649,61 C78.9563963,61 77.483466,61 77.7870232,61 L73,61 C73.3635384,60.2434239 73.591467,59.4873671 73.6822212,58.7307911 C73.8955457,57.4310588 74.0019472,52.3463692 74.0019472,43.480357 L74.0019472,34.8558053 C74.0019472,32.2838621 73.7140373,30.3324462 73.1371744,29 L80.8877916,29 C80.7365347,29.2731359 80.5842345,29.5602921 80.4324559,29.8630264 C80.2801558,30.1657606 80.1878369,30.574426 80.1565423,31.0890223 C80.1268125,31.3621582 80.0657881,34.3443245 79.9760771,40.0355213" id="Fill-13"></path>
                <path d="M94.3658674,45.1032459 L94.2776054,54.3314045 C94.2595518,56.2413244 94.2826203,57.3190352 94.3207334,57.5598557 C94.4004701,58.0768656 94.699859,58.3327699 95.1978373,58.3327699 C95.3728569,58.3327699 95.7524839,58.2885588 96.3372199,58.1959755 C98.2363579,57.9239471 99.463501,57.6654422 100.019151,57.4235814 C100.750321,57.0912179 101.741765,56.2574484 103,54.9227931 C102.824479,56.3146628 102.518571,58.3395316 102.08027,61 L95.4606175,61 C95.4892023,61 94.1015828,61 91.2952515,61 C89.6002194,60.9698324 88.1975552,60.9698324 87.0877605,61 C87.3204513,60.3945679 87.4673876,59.9696211 87.5260617,59.7256798 C87.6724965,59.2710856 87.760257,58.6807373 87.7898449,57.9525543 C87.8755994,56.3146628 87.9217364,53.2224859 87.9217364,48.6744632 L87.9217364,40.5760285 C87.9217364,38.3030574 87.9061903,36.0581734 87.8786084,33.843977 C87.8184297,32.3288364 87.7296662,31.2667295 87.6153268,30.6602571 C87.5546466,30.3263332 87.3510422,29.7807162 87,29.0234059 C87.5250588,28.992198 88.3585331,28.992198 89.4974142,29.0234059 L102.08027,29.0234059 C102.10735,29.0535735 102.034634,29.831689 101.861119,31.356192 L101.553205,33.8273329 C101.173076,33.2213806 100.866165,32.8656112 100.632973,32.7595046 C100.399279,32.6528778 99.8586742,32.5696569 99.0111581,32.5088016 C97.6370788,32.4182988 96.0734368,32.4026949 94.3207334,32.4635502 L94.3207334,41.2828861 L96.4249804,41.2828861 C97.7684689,41.2828861 98.6144805,41.2527185 98.9650212,41.1923833 C99.5216737,41.1310079 100.062279,40.9343985 100.58834,40.6004746 L100.603887,42.874486 C100.603887,44.8442209 100.597869,45.8298685 100.58834,45.8298685 C100.004607,45.3451067 98.9228961,45.1032459 97.3462153,45.1032459 L94.3658674,45.1032459" id="Fill-14"></path>
                <path d="M111.090287,29.005461 C112.296358,29.0361081 113.531921,29.3405021 114.799046,29.9207206 C116.065653,30.5004197 116.833482,30.7907887 117.105119,30.7907887 C117.49783,30.7907887 117.858461,30.599114 118.190635,30.2157646 C117.949524,31.0842743 117.512317,32.7132495 116.878496,35.1042485 C115.82299,34.1063973 115.236253,33.5609815 115.11518,33.4700788 C114.241283,32.864927 113.153698,32.5330026 111.859151,32.4717082 C110.863664,32.4415805 110.005806,32.7433772 109.28144,33.3770984 C108.407543,34.1323695 107.969301,35.2190455 107.969301,36.637646 C107.969301,38.3289544 108.678663,39.6872995 110.096352,40.7137201 C111.573026,41.589502 113.065739,42.4507395 114.572422,43.294316 C118.190635,45.4702653 120,48.2466914 120,51.6287888 C120,54.8010309 119.140073,57.2902047 117.421771,59.1015046 C115.581879,61.0333154 112.944666,62 109.506511,62 C107.547098,62 105.888815,61.4441953 104.531662,60.3315471 C103.024979,59.0999463 102.179022,57.4465573 102,55.37138 C102.028457,54.0187488 102.3151,52.95337 102.85941,52.170049 C103.281095,51.538925 103.733307,51.2236227 104.21708,51.2236227 C104.518727,51.2236227 104.669809,51.3753003 104.669809,51.6781359 C104.669809,51.8900689 104.547702,52.1471935 104.305556,52.4500291 C104.215528,52.8136397 104.169996,53.1772502 104.169996,53.5382635 C104.169996,54.7807726 104.592199,55.8788764 105.437121,56.831536 C106.279456,57.7847151 107.170427,58.291692 108.105378,58.3524669 C109.943718,58.4740167 111.383656,58.0730063 112.424157,57.1504744 C113.464141,56.228462 113.98465,54.8903752 113.98465,53.1367336 C113.98465,51.2023256 113.065739,49.4471256 111.225847,47.8752892 C111.196355,47.8441226 109.642588,46.8925019 106.566616,45.016791 C104.36661,43.6864959 102.993417,41.8414322 102.452729,39.4836776 C102.088994,37.8204191 102.164017,36.2168967 102.6778,34.675188 C103.974935,30.7752054 106.778234,28.8844306 111.090287,29.005461" id="Fill-15"></path>
            </g>
        </g>
    </g>
</svg>