<?xml version="1.0" encoding="UTF-8"?>
<svg width="602px" height="326px" viewBox="0 0 602 326" version="1.1" xmlns="http://www.w3.org/2000/svg" xmlns:xlink="http://www.w3.org/1999/xlink">
    <!-- Generator: Sketch 48.2 (47327) - http://www.bohemiancoding.com/sketch -->
    <title>TheBeatles</title>
    <desc>Created with Sketch.</desc>
    <defs></defs>
    <g id="Page-1" stroke="none" stroke-width="1" fill="none" fill-rule="evenodd">
        <g id="TheBeatles" fill="#1A1919">
            <g id="Label_B" transform="translate(197.000000, 29.000000)">
                <path d="M87.765227,18.0725396 L87.765227,22.8252558 C87.765227,34.5415896 87.7897912,41.1553582 87.8516568,42.6701682 C87.9035147,43.9586583 88.1327811,44.9532032 88.5285386,45.6547045 C88.7832791,46.0748839 89.2363532,46.5230152 89.8868512,47 L79.1140586,47 C79.5653132,46.4950633 80.0183873,46.0054551 80.4705516,45.5284703 C81.008236,44.7710653 81.2902701,43.8044723 81.3193833,42.6277895 C81.4039935,40.9173166 81.4458437,34.345025 81.4458437,22.9091114 L81.4458437,17.9463054 C81.4458437,14.2755962 81.4039935,12.0051846 81.3193833,11.1368739 L79.0285386,11.0521167 C78.0668933,11.0241648 77.1625646,11.3316352 76.3146428,11.9763311 C75.6923482,12.4533159 75.2538307,12.9853027 75,13.5740949 C75,13.1818674 75.1264604,12.6345521 75.3821107,11.9321491 C75.6923482,11.0638384 75.9025091,10.3614355 76.0180521,9.82944863 C76.1308657,9.4651729 76.3428462,8.60858392 76.6539935,7.2632884 C77.3035817,7.23443488 78.4053342,7.23443488 79.9619805,7.2632884 C81.7715476,7.2632884 83.1289504,7.2632884 84.0332791,7.2632884 C87.7943402,7.2632884 90.4936794,7.17582616 92.1349358,7 C92.1622295,7.56625039 92.4306167,8.6816194 92.9391879,10.3506154 C93.251245,11.1702358 93.6051523,12.2459312 94,13.5740949 C93.3212986,12.7607863 92.8127274,12.2297011 92.4733767,11.9763311 C91.5681383,11.304585 90.5646428,10.996213 89.4619805,11.0521167 L87.7233767,11.1368739 C87.7497606,11.6697624 87.7497606,12.6084036 87.7233767,13.9527974 C87.7515802,15.8318831 87.765227,17.2051305 87.765227,18.0725396" id="Fill-6"></path>
                <path d="M108.957806,26.1263241 L108.957806,34.2125898 C108.957806,41.2194691 110.672183,46 109.703342,46 L102.903664,46 C103.344935,44.6658347 103.565571,42.9764398 103.565571,40.9309022 L103.565571,30.2858882 L97.0968465,30.2858882 L97.0568118,40.0807257 C97.0568118,42.9207354 97.2623234,44.8932181 97.6777951,46 L91,46 C91.469741,44.6950566 91.7055011,43.134421 91.7055011,41.3180933 L91.7055011,26.2130768 C91.7055011,22.7228784 91.677032,20.5385365 91.6227627,19.659138 C91.5676037,18.2692682 91.3585334,17.0492512 91,16 C91.1663666,16 91.469741,16 91.9119025,16 L97.594167,16 C97.2623234,17.1889687 97.0968465,18.7477779 97.0968465,20.6736881 L97.0968465,26.3692317 L103.565571,26.3692317 C103.580696,23.6780714 103.580696,21.5238646 103.565571,19.9084378 C103.537992,18.4080726 103.35917,17.1058687 103.028216,16 C103.35917,16 103.88407,16 104.602916,16 L109.78786,16 C109.648183,16.2830878 109.456906,16.9643249 109.208691,18.0418848 C109.042324,19.6308292 108.957806,22.3265555 108.957806,26.1263241" id="Fill-7"></path>
                <path d="M117.363423,31.0956841 L117.275035,39.7509241 C117.25811,41.5406858 117.283498,42.5521709 117.320169,42.7780631 C117.401034,43.2627712 117.698166,43.5023816 118.19464,43.5023816 C118.372355,43.5023816 118.751293,43.4603126 119.335214,43.3743455 C121.234603,43.1191879 122.460743,42.8768339 123.019276,42.6491125 C123.748942,42.3381677 124.74095,41.556233 126,40.3051374 C125.824165,41.608362 125.51481,43.5060398 125.077574,46 L118.458862,46 C118.489892,46 117.09826,46 114.294311,46 C112.600846,45.9707346 111.196991,45.9707346 110.087447,46 C110.320639,45.4311539 110.466385,45.0333275 110.525623,44.8056062 C110.669488,44.3794289 110.758815,43.8252155 110.787964,43.142966 C110.875411,41.608362 110.919605,38.7074299 110.919605,34.443828 L110.919605,26.8531167 C110.919605,24.7222303 110.90456,22.6178656 110.875411,20.5427663 C110.817113,19.1206512 110.729666,18.1256278 110.61401,17.5567817 C110.551951,17.2449224 110.349788,16.732778 110,16.0212631 C110.525623,15.9929123 111.358721,15.9929123 112.498354,16.0212631 L125.077574,16.0212631 C125.106723,16.0505285 125.036201,16.7794197 124.859426,18.2079367 L124.551951,20.5226464 C124.172073,19.9538003 123.864598,19.621821 123.630465,19.5212212 C123.398213,19.421536 122.857546,19.3437998 122.010343,19.2870981 C120.635637,19.2002164 119.070992,19.1874128 117.320169,19.2441145 L117.320169,27.5143317 L119.424542,27.5143317 C120.768218,27.5143317 121.61448,27.4859808 121.96709,27.4283646 C122.519041,27.3725774 123.060649,27.1878396 123.586272,26.8750657 L123.57969,29.0068667 C123.57969,30.8551592 123.58157,31.7779336 123.586272,31.7779336 C123.004231,31.32432 121.922896,31.0956841 120.343206,31.0956841 L117.363423,31.0956841" id="Fill-8"></path>
                <path d="M15.9310345,53.2075951 L15.9310345,89.6149687 C15.9310345,92.4645079 16.3312408,94.4287109 17.1288283,95.5128319 C17.9273575,96.5978285 19.4245998,97.0768383 21.6243218,96.9542398 C27.4814582,96.70554 30.4137931,89.029123 30.4137931,73.9206103 C30.4137931,69.1497776 29.4806063,64.4770237 27.6151742,59.8935915 C25.4841935,54.6314891 22.9539483,52 20.02538,52 C19.958522,52 18.5931124,52.4028236 15.9310345,53.2075951 Z M15.9310345,7.70334452 L15.9310345,42.4257319 C17.1851874,43.1872547 18.6018293,43.5675676 20.187497,43.5675676 C21.9702059,43.5675676 23.5549398,42.2355755 24.9435663,39.5715913 C26.6599723,36.5290882 27.5172414,32.5967965 27.5172414,27.775613 C27.5172414,22.0054413 26.9886855,17.2488393 25.9343752,13.505807 C24.6120516,9.00304588 22.7303552,6.84764052 20.2874184,7.03869393 C19.1658713,7.16426894 17.7109418,7.3867161 15.9310345,7.70334452 Z M3.52346205,64.8631508 L3.52346205,38.7106351 C3.52346205,28.3381497 3.4736148,20.8721864 3.3766896,16.3100951 C3.2779182,11.7497706 2.93544913,8.12412708 2.3492824,5.4375818 C1.82865557,3.62564349 1.30433636,1.81458863 0.782786435,0 L20.9506143,0 C25.4525594,0 28.6833996,0.595439501 30.6422119,1.7819013 C33.7096639,3.65744738 35.9943295,7.47038045 37.4943625,13.2224674 C38.3436119,16.8507612 38.7682367,20.849217 38.7682367,25.2257856 C38.7682367,33.2898387 37.4629772,39.5419535 34.8533814,43.980363 C33.1558056,46.7313996 31.2293017,48.4488096 29.0775621,49.136127 C31.1646849,49.7642539 32.6342557,50.327006 33.4835051,50.825267 C35.2447746,51.8270895 36.6811139,53.2644487 37.7915998,55.1391113 C40.5959691,59.6402452 42,66.1741778 42,74.7364918 C42,86.6788526 39.5519462,94.9911527 34.6576848,99.6813431 C31.5902328,102.682394 27.7381481,104.117102 23.1042001,103.992537 C17.4253061,103.856487 10.3756127,103.681566 1.95788918,103.477491 C1.23971955,103.477491 0.993252599,103.477491 1.22218071,103.477491 C1.44926262,103.477491 1.53049518,103.477491 1.46587837,103.477491 C1.40126157,103.477491 0.912020044,103.477491 0,103.477491 C1.95788918,101.230899 3.03422053,98.1688914 3.22899404,94.2941175 C3.42561375,89.3574469 3.52346205,79.5468302 3.52346205,64.8631508 Z" id="Fill-9"></path>
                <path d="M50.8893904,78.1806804 L50.7358094,94.3299579 C50.7042156,97.6723177 50.7463407,99.5583115 50.8112835,99.9797474 C50.9517004,100.884515 51.477386,101.332347 52.3462153,101.332347 C52.6533772,101.332347 53.3186021,101.254978 54.34189,101.092957 C57.664504,100.616907 59.8111268,100.164524 60.7843912,99.7412675 C62.0639398,99.1596314 63.7998433,97.7005348 66,95.3648879 C65.6928381,97.8006599 65.1557436,101.34418 64.3913493,106 L52.8052029,106 C52.8569817,106 50.4277699,106 45.5175678,106 C42.5512616,105.947207 40.0957217,105.947207 38.1535809,106 C38.5616675,104.940494 38.8179282,104.196837 38.9206081,103.76994 C39.1768688,102.9744 39.3304498,101.94129 39.3822285,100.66697 C39.5340542,97.8006599 39.6121611,92.3893503 39.6121611,84.4303106 L39.6121611,70.2580498 C39.6121611,66.2803504 39.5858329,62.3518034 39.5375646,58.4769598 C39.432252,55.8254636 39.2786711,53.9667767 39.0750666,52.90545 C38.9715092,52.3210832 38.6143238,51.3662533 38,50.0409603 C38.9197304,49.9863466 40.3783106,49.9863466 42.3739853,50.0409603 L64.3913493,50.0409603 C64.4404952,50.0937536 64.3123648,51.4554557 64.0069582,54.123336 L63.4698637,58.4478325 C62.8037612,57.3874161 62.2657891,56.7648197 61.8585802,56.579133 C61.4487384,56.3925361 60.5018022,56.2468995 59.0195267,56.1404028 C56.6157656,55.982023 53.8802696,55.9547161 50.8112835,56.0612129 L50.8112835,71.4950506 L54.4937157,71.4950506 C56.843943,71.4950506 58.3270961,71.4422574 58.9414198,71.3366708 C59.912929,71.2292639 60.8589876,70.8851974 61.7813509,70.3008306 L61.807679,74.2803504 C61.807679,77.7273865 61.7971478,79.4522699 61.7813509,79.4522699 C60.758063,78.6039367 58.8659458,78.1806804 56.1049992,78.1806804 L50.8893904,78.1806804" id="Fill-10"></path>
                <path d="M79.4814815,83.025641 L86.5185185,83.025641 L83.1265794,62.9230769 L79.4814815,83.025641 Z M92.6381469,72.1292008 L94.7440506,83.3946288 C97.3445157,97.3562353 99.7637607,104.89045 102,106 L95.3671624,106 C95.5216012,106 94.3780393,105.92912 91.9337985,105.790085 C90.1126694,105.682856 88.3950948,105.754645 86.7837527,106 L87.8005497,104.310686 C87.7469871,102.809477 87.4345385,99.3990426 86.8640966,94.0848357 L77.4218996,94.0848357 C76.4318839,99.2381988 75.9391078,102.297866 75.9391078,103.262929 C75.9391078,104.552406 76.2229896,105.464763 76.7970024,106 C76.2765523,105.948203 75.2624333,105.948203 73.7537529,106 C71.7746141,106 70.163272,106 68.915263,106 L64,106 C65.405126,105.207594 66.5227994,103.305639 67.3539127,100.288682 C67.9788099,98.2286085 69.3053774,92.1992373 71.334508,82.2051116 L73.5207555,71.5748803 C74.3509761,67.8200406 75.1820894,64.0670183 76.0167736,60.3121785 C76.742547,57.0871237 77.1076656,54.813501 77.1076656,53.4904016 C77.1076656,51.6402434 76.4318839,50.4761704 75.0794277,50 C76.0132027,50 77.340663,50 79.0573449,50 L83.6628374,50 C84.8563911,50 86.2882984,50 87.9540959,50 C89.6198933,50 91.1017925,50 92.4024714,50 C90.3742336,50.7406085 89.3601146,52.2754402 89.3601146,54.60086 C89.3601146,55.9239594 89.6984519,58.1712292 90.3742336,61.3417606 C91.725797,67.848211 92.4792445,71.4431156 92.6381469,72.1292008 Z" id="Fill-11"></path>
                <path d="M114.524867,77.8840477 L114.524867,90.2749478 C114.524867,103.283602 114.624447,111.760267 114.738003,115.707628 C114.834963,119.069466 115.163403,121.665825 115.80718,123.490439 C116.233453,124.587177 117.016118,125.757329 118.159542,127 L100.734763,127 C101.518301,125.68481 102.266026,124.406327 102.979684,123.163656 C103.906478,121.190423 104.404379,118.666582 104.473386,115.598402 C104.617515,111.140722 104.690017,102.773283 104.690017,90.4934001 L104.690017,77.5563692 C104.690017,67.9811758 104.617515,62.061477 104.473386,59.7945869 L100.627321,59.5752393 C98.9877427,59.501825 97.4547325,60.3066964 96.029164,61.9862721 C95.1023697,63.2289433 94.4288935,64.6175478 94,66.150295 C94,65.0490806 94.21401,63.4742545 94.6402829,61.4195496 C95.0674293,58.489245 95.3530671,56.4345401 95.4963228,55.2608067 C95.7085858,54.6752829 96.0649779,52.8067997 96.5637521,49.6517757 C97.7028093,49.580152 99.5563978,49.580152 102.124517,49.6517757 C105.187044,49.6517757 107.469526,49.6517757 108.965849,49.6517757 C114.808758,49.6517757 119.121277,49.4360093 121.90166,49 C121.90166,49.6643098 122.363747,52.2105324 123.290541,56.6341911 C123.788441,59.1428112 124.358844,62.3139506 125,66.150295 C123.858322,64.0329194 123.004029,62.6443149 122.436248,61.9862721 C120.938178,60.2332821 119.265406,59.4310966 117.412691,59.5752393 L114.524867,59.7945869 C114.57291,61.184982 114.57291,63.6327219 114.524867,67.1395973 C114.57291,72.0377631 114.57291,75.6180528 114.524867,77.8840477" id="Fill-12"></path>
                <path d="M139.091867,69.3121623 L138.931847,80.0432617 L138.931847,92.8362515 C138.931847,95.9104584 139.012309,97.8451278 139.169616,98.6393509 C139.486943,99.6453063 140.172224,100.148738 141.226364,100.148738 C141.803157,100.148738 142.884419,99.989712 144.462916,99.672568 C146.678779,99.2481947 148.599917,98.3485598 150.232658,96.9700284 C151.179213,96.0195051 152.10136,95.0662556 153,94.1130061 C152.418686,97.0190994 151.758719,100.981128 151.023714,106 C149.124274,105.892771 146.439202,105.892771 142.963072,106 C137.32442,106 134.771341,106 135.297507,106 L127,106 C127.630133,104.675992 128.025209,103.352892 128.182517,102.028884 C128.552279,99.7543529 128.736709,90.856146 128.736709,75.3406247 L128.736709,60.2476592 C128.736709,55.7467586 128.237665,52.3317809 127.237769,50 L140.672172,50 C140.409993,50.4779878 140.146006,50.9805112 139.882924,51.5102961 C139.618937,52.0400811 139.458917,52.7552454 139.404673,53.655789 C139.353142,54.1337769 139.247366,59.352568 139.091867,69.3121623" id="Fill-13"></path>
                <path d="M164.890268,78.1806804 L164.735809,94.3299579 C164.704216,97.6723177 164.744585,99.5583115 164.811283,99.9797474 C164.950823,100.884515 165.474753,101.332347 166.346215,101.332347 C166.6525,101.332347 167.316847,101.254978 168.340135,101.092957 C171.663626,100.616907 173.811127,100.164524 174.783514,99.7412675 C176.063062,99.1596314 177.798088,97.7005348 180,95.3648879 C179.692838,97.8006599 179.157499,101.34418 178.390472,106 L166.806081,106 C166.856104,106 164.42777,106 159.51669,106 C156.550384,105.947207 154.095722,105.947207 152.153581,106 C152.56079,104.940494 152.817928,104.196837 152.920608,103.76994 C153.176869,102.9744 153.33045,101.94129 153.382228,100.66697 C153.532299,97.8006599 153.613039,92.3893503 153.613039,84.4303106 L153.613039,70.2580498 C153.613039,66.2803504 153.585833,62.3518034 153.537565,58.4769598 C153.432252,55.8254636 153.276916,53.9667767 153.076822,52.90545 C152.970632,52.3210832 152.614324,51.3662533 152,50.0409603 C152.918853,49.9863466 154.377433,49.9863466 156.370475,50.0409603 L178.390472,50.0409603 C178.437862,50.0937536 178.31061,51.4554557 178.006958,54.123336 L177.468108,58.4478325 C176.802884,57.3874161 176.265789,56.7648197 175.857703,56.579133 C175.448738,56.3925361 174.50268,56.2468995 173.019527,56.1404028 C170.614888,55.982023 167.878514,55.9547161 164.811283,56.0612129 L164.811283,71.4950506 L168.493716,71.4950506 C170.844821,71.4950506 172.325341,71.4422574 172.938787,71.3366708 C173.912929,71.2292639 174.858988,70.8851974 175.779596,70.3008306 L175.806801,74.2803504 C175.806801,77.7273865 175.79627,79.4522699 175.779596,79.4522699 C174.758063,78.6039367 172.865068,78.1806804 170.105877,78.1806804 L164.890268,78.1806804" id="Fill-14"></path>
                <path d="M193.655495,50.0094326 C195.732617,50.0623686 197.860531,50.58814 200.042801,51.5903356 C202.22418,52.591634 203.546552,53.0931804 204.014372,53.0931804 C204.690707,53.0931804 205.311794,52.762106 205.883871,52.099957 C205.468625,53.6001102 204.715657,56.4137946 203.624077,60.5437019 C201.806261,58.8201407 200.795769,57.8780589 200.587255,57.7210453 C199.08221,56.6757831 197.209147,56.102459 194.979649,55.9965869 C193.265199,55.9445481 191.787778,56.4658334 190.540257,57.5604428 C189.035212,58.8650018 188.280462,60.7419877 188.280462,63.1922977 C188.280462,66.1136486 189.502141,68.4598809 191.943718,70.2327892 C194.486878,71.7455035 197.057662,73.2330955 199.652505,74.6901821 C205.883871,78.44864 209,83.2442851 209,89.0860897 C209,94.5654171 207.519015,98.8648991 204.559717,101.993508 C201.391014,105.330272 196.849148,107 190.92788,107 C187.553336,107 184.697404,106.039974 182.360085,104.118127 C179.765242,101.990816 178.308316,99.1349625 178,95.5505655 C178.04901,93.2142025 178.542672,91.3740027 179.480094,90.0209938 C180.20633,88.9308705 180.985139,88.3862575 181.818305,88.3862575 C182.337808,88.3862575 182.598005,88.6482459 182.598005,89.1713257 C182.598005,89.5373917 182.387709,89.981516 181.97068,90.5045958 C181.815631,91.1326503 181.737216,91.7607049 181.737216,92.3842733 C181.737216,94.5304254 182.464342,96.4271502 183.919486,98.0726531 C185.370174,99.7190533 186.904625,100.594741 188.514818,100.699716 C191.680847,100.909665 194.16074,100.217011 195.952715,98.6235467 C197.743798,97.0309798 198.640231,94.719739 198.640231,91.6907216 C198.640231,88.3494714 197.057662,85.3177624 193.888959,82.6027723 C193.838167,82.548939 191.162235,80.9052305 185.864727,77.6653662 C182.075829,75.3675838 179.710886,72.1806555 178.7797,68.1081704 C178.153267,65.2352694 178.282474,62.4655488 179.167323,59.8025975 C181.401276,53.0662638 186.229182,49.8003801 193.655495,50.0094326" id="Fill-15"></path>
            </g>
        </g>
    </g>
</svg>